# xmcd
#
# Track frame offsets:
#	150
#	18542
#	40124
#	59686
#	75548
#	92660
#	110772
#	127434
#	143461
#	160943
#	177085
#	194892
#	227674
#
# Disc length: 3459 seconds
#
# Revision: 0
# Processed by: cddbd v1.5.2PL0 Copyright (c) Steve Scherf et al.
# Submitted via: dBpowerAMP V4.0
#
DISCID=b60d810d
DTITLE=madonna - 1
DYEAR=1900
DGENRE=
TTITLE0=madoda
TTITLE1=madoda
TTITLE2=madoda
TTITLE3=madoda
TTITLE4=madoda
TTITLE5=madoda
TTITLE6=madoda
TTITLE7=madoda
TTITLE8=madoda
TTITLE9=madoda
TTITLE10=madoda
TTITLE11=madoda
TTITLE12=madoda
EXTD=
EXTT0=
EXTT1=
EXTT2=
EXTT3=
EXTT4=
EXTT5=
EXTT6=
EXTT7=
EXTT8=
EXTT9=
EXTT10=
EXTT11=
EXTT12=
PLAYORDER=
